<svg xmlns="http://www.w3.org/2000/svg" width="960" height="524" viewBox="0 0 960 524" role="img" aria-labelledby="t d">
  <title id="t">Naive vs controlled p95 latency during a CPU-stress fault</title>
  <desc id="d">p95 latency over a 90-second run on Raspberry Pi 5. A CPU-stress fault runs from 21 to 50 seconds. Naive stays pinned above the 200 ms SLO; the controller switches to Lightning, recovers below the SLO, briefly returns to Thunder mid-fault, then settles after the fault clears. One run per mode.</desc>
  <rect width="960" height="524" fill="#f6f8f8"/>
  <text x="40" y="44" font-family="Arial, Helvetica, sans-serif" font-size="25" font-weight="700" fill="#16241f">Under load, the controller recovers &#8212; naive stays stuck</text>
  <text x="40" y="72" font-family="Arial, Helvetica, sans-serif" font-size="14.5" fill="#56635f">p95 latency over a 90-second run &#183; Raspberry Pi 5 &#183; one run per mode.</text>
  <rect x="70" y="110" width="850" height="320" fill="#ffffff" stroke="#e3e9e7"/>
  <line x1="70" y1="430.0" x2="920" y2="430.0" stroke="#eef2f0"/><text x="62" y="434.0" text-anchor="end" font-family="Arial, Helvetica, sans-serif" font-size="11.5" fill="#8a948f">0</text><line x1="70" y1="357.3" x2="920" y2="357.3" stroke="#eef2f0"/><text x="62" y="361.3" text-anchor="end" font-family="Arial, Helvetica, sans-serif" font-size="11.5" fill="#8a948f">50</text><line x1="70" y1="284.5" x2="920" y2="284.5" stroke="#eef2f0"/><text x="62" y="288.5" text-anchor="end" font-family="Arial, Helvetica, sans-serif" font-size="11.5" fill="#8a948f">100</text><line x1="70" y1="211.8" x2="920" y2="211.8" stroke="#eef2f0"/><text x="62" y="215.8" text-anchor="end" font-family="Arial, Helvetica, sans-serif" font-size="11.5" fill="#8a948f">150</text><line x1="70" y1="139.1" x2="920" y2="139.1" stroke="#eef2f0"/><text x="62" y="143.1" text-anchor="end" font-family="Arial, Helvetica, sans-serif" font-size="11.5" fill="#8a948f">200</text>
  <text x="495.0" y="468" text-anchor="middle" font-family="Arial, Helvetica, sans-serif" font-size="12.5" fill="#56635f">seconds into run</text>
  <text x="22" y="270" text-anchor="middle" transform="rotate(-90 22 270)" font-family="Arial, Helvetica, sans-serif" font-size="12.5" fill="#56635f">p95 latency (ms)</text>
  <text x="70.0" y="448" text-anchor="middle" font-family="Arial, Helvetica, sans-serif" font-size="11.5" fill="#8a948f">0</text><text x="211.7" y="448" text-anchor="middle" font-family="Arial, Helvetica, sans-serif" font-size="11.5" fill="#8a948f">15</text><text x="353.3" y="448" text-anchor="middle" font-family="Arial, Helvetica, sans-serif" font-size="11.5" fill="#8a948f">30</text><text x="495.0" y="448" text-anchor="middle" font-family="Arial, Helvetica, sans-serif" font-size="11.5" fill="#8a948f">45</text><text x="636.7" y="448" text-anchor="middle" font-family="Arial, Helvetica, sans-serif" font-size="11.5" fill="#8a948f">60</text><text x="778.3" y="448" text-anchor="middle" font-family="Arial, Helvetica, sans-serif" font-size="11.5" fill="#8a948f">75</text><text x="920.0" y="448" text-anchor="middle" font-family="Arial, Helvetica, sans-serif" font-size="11.5" fill="#8a948f">90</text>
  <rect x="268.3" y="110" width="273.9" height="320" fill="#d23f3f" opacity="0.07"/>
  <text x="405.3" y="422" text-anchor="middle" font-family="Arial, Helvetica, sans-serif" font-size="12" font-weight="700" fill="#b5462f">CPU-stress fault (21&#8211;50 s)</text>
  <line x1="70" y1="139.1" x2="920" y2="139.1" stroke="#d23f3f" stroke-width="1.4" stroke-dasharray="6 4"/>
  <text x="916" y="133.1" text-anchor="end" font-family="Arial, Helvetica, sans-serif" font-size="11.5" fill="#c0392b">200 ms SLO</text>
  <polyline points="79.8,374.4 89.2,376.2 98.7,376.2 108.1,376.2 117.5,376.1 127.0,376.0 136.4,376.2 145.9,376.1 155.3,376.1 164.8,376.2 174.2,376.2 183.6,376.1 193.1,376.1 202.5,376.2 212.0,376.4 221.4,376.1 230.9,376.1 240.3,375.6 249.8,376.1 259.2,375.9 269.4,221.1 278.4,207.1 288.7,184.3 298.5,172.1 306.4,169.4 316.2,154.1 326.0,154.1 335.3,154.1 344.4,154.1 353.8,154.1 362.9,154.1 373.7,144.1 382.8,133.8 392.7,144.1 401.3,136.5 411.3,144.1 420.9,144.1 429.2,136.5 439.0,136.5 447.8,136.5 457.4,130.8 466.8,130.8 476.3,136.5 486.7,130.8 496.3,130.8 504.4,130.8 514.2,137.9 524.5,132.3 532.9,132.3 542.4,135.0 552.0,158.6 561.4,205.5 570.9,376.1 580.3,376.3 589.8,376.3 599.2,376.1 608.6,376.1 618.1,376.1 627.5,376.3 637.0,376.3 646.4,376.1 655.9,376.1 665.3,376.1 674.8,376.1 684.2,376.3 693.6,376.3 703.1,376.3 712.5,375.9 722.0,375.5 731.4,375.5 740.8,376.1 750.3,376.1 759.8,376.1 769.2,376.1 778.7,376.3 788.0,376.3 797.5,376.2 807.0,376.2 816.4,376.2 825.8,376.2 835.3,376.3 844.7,376.3 854.2,376.3 863.6,376.3 873.1,376.2 882.5,376.2 891.9,376.3 901.4,376.4 910.8,376.3 920.3,376.2" fill="none" stroke="#9aa6b2" stroke-width="2.4"/>
  <polyline points="79.9,372.6 88.9,373.4 98.7,376.3 107.8,376.4 117.2,376.2 126.7,376.2 136.5,376.2 145.6,376.4 155.0,376.3 164.9,376.3 173.9,376.2 183.7,376.2 192.8,376.2 202.2,376.2 212.1,376.0 221.1,376.0 230.6,376.0 240.0,376.0 249.5,376.0 258.9,376.1 268.4,179.5 278.1,131.4 287.3,131.4 296.9,179.5 306.3,351.7 315.6,347.3 325.0,346.0 334.9,345.6 344.4,338.1 353.8,338.8 363.2,340.1 372.3,350.1 381.7,351.5 391.9,338.0 401.6,174.3 410.3,161.9 419.8,148.9 429.0,148.9 439.2,148.9 447.8,134.3 457.4,134.3 467.1,207.0 476.1,344.0 485.7,337.4 495.2,340.5 504.6,341.1 514.0,342.9 523.4,341.5 533.1,341.3 542.8,338.3 551.8,342.0 561.2,351.4 570.9,376.6 580.0,376.4 589.8,376.2 599.2,376.2 608.4,376.1 617.8,376.2 627.3,376.3 637.1,376.3 646.5,376.3 655.6,373.8 665.0,373.9 674.5,374.9 684.3,375.7 693.7,376.1 702.8,376.2 712.2,376.3 722.1,376.3 731.1,375.0 740.6,375.0 750.0,376.0 759.8,376.2 769.3,375.9 778.7,376.2 788.1,376.4 797.6,376.4 807.0,376.4 816.5,376.2 826.0,376.2 835.4,376.2 844.9,376.1 854.3,376.2 863.7,376.4 873.2,376.4 882.6,376.2 892.1,376.1 901.5,376.1 911.0,376.1" fill="none" stroke="#3f72d4" stroke-width="2.4"/>
  <polygon points="272.1,115.4 284.1,115.4 278.1,126.4" fill="#c9882f"/><polygon points="385.9,354.0 397.9,354.0 391.9,343.0" fill="#1f9d76"/><polygon points="441.8,118.3 453.8,118.3 447.8,129.3" fill="#c9882f"/><polygon points="564.9,392.6 576.9,392.6 570.9,381.6" fill="#1f9d76"/>
  <g font-family="Arial, Helvetica, sans-serif" font-size="12.5" fill="#45524f">
    <line x1="70" y1="488" x2="98" y2="488" stroke="#9aa6b2" stroke-width="3"/><text x="104" y="492">naive (fixed Thunder)</text>
    <line x1="240" y1="488" x2="268" y2="488" stroke="#3f72d4" stroke-width="3"/><text x="274" y="492">controlled</text>
    <polygon points="372,484 384,484 378,493" fill="#c9882f"/><text x="390" y="492">&#8594; Lightning</text>
    <polygon points="492,493 504,493 498,484" fill="#1f9d76"/><text x="510" y="492">&#8594; Thunder</text>
  </g>
  <text x="40" y="512" font-family="Arial, Helvetica, sans-serif" font-size="11" fill="#7c8682">One run per mode. The controller even recovered to Thunder mid-fault (~34 s) before degrading again &#8212; a recovery-tuning target noted in the README.</text>
</svg>